<svg xmlns="http://www.w3.org/2000/svg" viewBox="0 0 180 126.33"><defs><style>.cls-1{fill:#fff;fill-rule:evenodd;}</style></defs><g id="Camada_2" data-name="Camada 2"><g id="Camada_1-2" data-name="Camada 1"><polygon class="cls-1" points="27.14 79.84 27.14 84.4 28.94 84.4 28.94 79.84 31.31 79.84 31.31 91.74 28.94 91.74 28.94 86.73 27.14 86.73 27.14 91.74 24.76 91.74 24.76 79.84 27.14 79.84 27.14 79.84"/><polygon class="cls-1" points="23.5 79.74 23.5 81.87 22.17 81.87 22.17 91.74 19.8 91.74 19.8 81.87 18.34 81.87 18.34 79.74 23.5 79.74 23.5 79.74"/><polygon class="cls-1" points="77.58 96.56 77.58 126.06 70.36 126.06 70.36 96.56 77.58 96.56 77.58 96.56"/><polygon class="cls-1" points="60.61 96.56 60.61 107.41 60.81 107.41 62.59 96.56 69.69 96.56 67.05 110.55 69.74 126.06 62.24 126.06 60.82 115.59 60.61 115.59 60.61 126.06 53.4 126.06 53.4 96.56 60.61 96.56 60.61 96.56"/><polygon class="cls-1" points="140.5 102.8 140.5 107.91 145.77 107.91 145.77 114.14 140.5 114.14 140.5 119.69 146.06 119.69 146.06 126.06 133.29 126.06 133.29 126.06 133.29 126.06 133.29 96.57 133.29 96.56 133.29 96.56 133.29 96.56 133.29 96.56 146.06 96.56 146.06 102.8 140.5 102.8 140.5 102.8"/><polygon class="cls-1" points="52.61 119.75 52.61 126.06 40.52 126.06 40.52 126.06 40.52 126.06 40.52 96.56 47.73 96.56 47.73 119.75 52.61 119.75 52.61 119.75"/><polygon class="cls-1" points="93.73 96.56 93.73 126.06 87.16 126.06 84.47 114.37 84.47 126.06 78.56 126.06 78.56 96.56 85.5 96.56 87.92 107.59 87.92 96.56 93.73 96.56 93.73 96.56"/><path class="cls-1" d="M32,116.14l-.82-9.21H31l-.89,9.21Zm4.15-19.58L40,126.06H32.79l-.36-3.84H29.6l-.36,3.84H22.86l3.91-29.5Z"/><path class="cls-1" d="M155.57,116.14l-.82-9.21h-.22l-.89,9.21Zm4.15-19.58,3.79,29.5h-7.16l-.36-3.84h-2.83l-.36,3.84h-6.39l3.92-29.5Z"/><polygon class="cls-1" points="24.53 96.56 20.89 126.06 13.42 126.06 12.39 116.06 12.08 116.06 11.06 126.06 3.62 126.06 0 96.56 7.49 96.56 8.52 106.7 8.63 106.7 9.6 96.56 16.13 96.56 17.07 106.7 17.18 106.7 18.07 96.56 24.53 96.56 24.53 96.56"/><path class="cls-1" d="M126.89,96.57a5.3,5.3,0,0,1,5.29,5.29v18.91a5.3,5.3,0,0,1-5.29,5.29H116.37V96.57ZM123.58,120h.56a1.11,1.11,0,0,0,1.11-1.11V103.63a1.11,1.11,0,0,0-1.11-1.11h-.56V120Z"/><path class="cls-1" d="M174.65,96.57a5.31,5.31,0,0,1,5.3,5.29v18.91a5.31,5.31,0,0,1-5.3,5.29H164.13V96.57ZM171.35,120h.56a1.11,1.11,0,0,0,1.11-1.11V103.63a1.11,1.11,0,0,0-1.11-1.11h-.56V120Z"/><path class="cls-1" d="M103,96.3h-2.73a5.41,5.41,0,0,0-5.39,5.39v19.25a5.41,5.41,0,0,0,5.39,5.39h5a5.41,5.41,0,0,0,5.39-5.39v-11.8h-8V115h.9v4c0,1.36-1.69,1.36-1.69,0V103.18c0-1.37,1.69-1.37,1.69,0V108h7v-6.27a5.4,5.4,0,0,0-5.39-5.39Z"/><polygon class="cls-1" points="34.75 81.87 34.75 84.69 37.26 84.69 37.26 86.82 34.75 86.82 34.75 89.61 37.45 89.61 37.45 91.74 32.38 91.74 32.38 79.84 32.38 79.74 37.45 79.74 37.45 81.87 34.75 81.87 34.75 81.87"/><path class="cls-1" d="M1.83,0H34.27a2.35,2.35,0,0,1,2.42,2.37V15H14.76V39.12l14.66-.07c0,4.76.1,9.62.21,14.38-4.89-.09-9.8-.12-14.63-.09v36.6a1.81,1.81,0,0,1-1.8,1.8H1.83A1.81,1.81,0,0,1,0,89.94V1.81A1.81,1.81,0,0,1,1.83,0Z"/><path class="cls-1" d="M139.63,0h20.72C171.49,0,176,7.91,176,14.29l.12,20.61c0,7.08-2.8,9.67-5.33,11,3.85,1.7,5.8,4.22,5.8,9.37V78.11c0,6.55.82,9.33,2.72,11.31,1.07,1.12.77,2.32-.52,2.32H165.15c-1.55,0-4-1-4-6.63l-.29-24.26c0-7-2.22-7.57-7-7.79V89c0,1,0,2.75-1.26,2.75H139c-1,0-1.2-.81-1.2-1.8V1.81A1.82,1.82,0,0,1,139.63,0Zm13.9,14.78V38.21c3.34-.31,7.18-.86,7.18-5l-.14-12.71c0-5.27-4.37-5.92-7-5.7Z"/><path class="cls-1" d="M102,0H117.5c1.41,0,1.68.81,1.81,1.81l12,88.13a1.55,1.55,0,0,1-1.57,1.8h-11.6c-1,0-2-.35-2.11-1.34l-1.87-11.78h0c-.1-.67-.6-1.16-1.79-1.16-2.12,0-4.21,0-6.34,0a1.57,1.57,0,0,0-1.76,1.35L102.66,90.4c-.13,1-1.13,1.34-2.13,1.34H89.14a1.53,1.53,0,0,1-1.55-1.8L99.9,2A2.27,2.27,0,0,1,102,0Zm9.52,61.86L108.85,48l-2.46,13.65a.8.8,0,0,0,.84,1.05h2.92c.79,0,1.52-.14,1.37-.88Z"/><path class="cls-1" d="M71.07,38.26l-13.29.07V15.71h23V2.37A2.36,2.36,0,0,0,78.31,0H43.11A1.82,1.82,0,0,0,41.3,1.81V89.94a1.81,1.81,0,0,0,1.81,1.8H78.6A2.47,2.47,0,0,0,81,89.28V75.83l-23.6-.12V53.42c4.63,0,9.18,0,13.87.1-.11-4.94-.22-10.32-.22-15.26Z"/></g></g></svg>